<svg xmlns="http://www.w3.org/2000/svg" viewBox="0 0 200 200">
  <defs><linearGradient id="g" x1="0" x2="1"><stop offset="0%" stop-color="#6f7889"/><stop offset="100%" stop-color="#9da8bb"/></linearGradient></defs>
  <rect width="200" height="200" fill="#101a2d"/>
  <ellipse cx="100" cy="182" rx="56" ry="10" fill="#000" opacity="0.35"/>
  <rect x="52" y="58" width="96" height="92" rx="16" fill="url(#g)" stroke="#d7dde7" stroke-width="3"/>
  <rect x="45" y="111" width="26" height="36" rx="3" fill="#9da8bb" opacity="0.95"/>
<rect x="153" y="83" width="27" height="18" rx="5" fill="#6f7889" opacity="0.95"/>
<rect x="69" y="23" width="12" height="40" rx="4" fill="#d7dde7" opacity="0.95"/>
<rect x="106" y="78" width="45" height="31" rx="3" fill="#9da8bb" opacity="0.95"/>
<rect x="83" y="80" width="17" height="16" rx="0" fill="#6f7889" opacity="0.95"/>
<rect x="138" y="53" width="32" height="36" rx="4" fill="#d7dde7" opacity="0.95"/>
<rect x="34" y="42" width="18" height="10" rx="4" fill="#9da8bb" opacity="0.95"/>
<rect x="86" y="22" width="43" height="18" rx="1" fill="#6f7889" opacity="0.95"/>
<rect x="42" y="69" width="15" height="10" rx="3" fill="#d7dde7" opacity="0.95"/>
<rect x="40" y="54" width="36" height="9" rx="3" fill="#9da8bb" opacity="0.95"/>
  <rect x="102" y="86" width="36" height="12" rx="6" fill="#111"/>
  <circle cx="112" cy="92" r="3" fill="#8ef5ff"/><circle cx="128" cy="92" r="3" fill="#8ef5ff"/>
  <rect x="92" y="150" width="18" height="36" fill="#6f7889"/><rect x="120" y="150" width="18" height="36" fill="#6f7889"/>
</svg>