<svg xmlns="http://www.w3.org/2000/svg" viewBox="0 0 200 200">
  <defs><linearGradient id="g" x1="0" x2="1"><stop offset="0%" stop-color="#3478b8"/><stop offset="100%" stop-color="#65bcff"/></linearGradient></defs>
  <rect width="200" height="200" fill="#101a2d"/>
  <ellipse cx="100" cy="182" rx="56" ry="10" fill="#000" opacity="0.35"/>
  <rect x="52" y="58" width="96" height="92" rx="16" fill="url(#g)" stroke="#d3edff" stroke-width="3"/>
  <rect x="73" y="77" width="20" height="34" rx="0" fill="#65bcff" opacity="0.95"/>
<rect x="148" y="88" width="34" height="26" rx="4" fill="#3478b8" opacity="0.95"/>
<rect x="150" y="34" width="43" height="29" rx="1" fill="#d3edff" opacity="0.95"/>
<rect x="55" y="112" width="28" height="29" rx="4" fill="#65bcff" opacity="0.95"/>
<rect x="133" y="36" width="30" height="19" rx="4" fill="#3478b8" opacity="0.95"/>
<rect x="164" y="111" width="30" height="26" rx="2" fill="#d3edff" opacity="0.95"/>
<rect x="109" y="70" width="18" height="34" rx="1" fill="#65bcff" opacity="0.95"/>
<rect x="58" y="57" width="25" height="26" rx="0" fill="#3478b8" opacity="0.95"/>
<rect x="154" y="148" width="21" height="19" rx="0" fill="#d3edff" opacity="0.95"/>
<rect x="105" y="69" width="25" height="20" rx="5" fill="#65bcff" opacity="0.95"/>
  <rect x="102" y="86" width="36" height="12" rx="6" fill="#111"/>
  <circle cx="112" cy="92" r="3" fill="#8ef5ff"/><circle cx="128" cy="92" r="3" fill="#8ef5ff"/>
  <rect x="92" y="150" width="18" height="36" fill="#3478b8"/><rect x="120" y="150" width="18" height="36" fill="#3478b8"/>
</svg>