<svg xmlns="http://www.w3.org/2000/svg" viewBox="0 0 200 200">
  <defs><linearGradient id="g" x1="0" x2="1"><stop offset="0%" stop-color="#c27d24"/><stop offset="100%" stop-color="#ffbf60"/></linearGradient></defs>
  <rect width="200" height="200" fill="#101a2d"/>
  <ellipse cx="100" cy="182" rx="56" ry="10" fill="#000" opacity="0.35"/>
  <rect x="52" y="58" width="96" height="92" rx="16" fill="url(#g)" stroke="#ffe5bb" stroke-width="3"/>
  <rect x="21" y="29" width="23" height="32" rx="5" fill="#ffbf60" opacity="0.95"/>
<rect x="108" y="114" width="28" height="9" rx="3" fill="#c27d24" opacity="0.95"/>
<rect x="161" y="140" width="41" height="18" rx="3" fill="#ffe5bb" opacity="0.95"/>
<rect x="99" y="21" width="43" height="13" rx="3" fill="#ffbf60" opacity="0.95"/>
<rect x="84" y="121" width="44" height="33" rx="4" fill="#c27d24" opacity="0.95"/>
<rect x="143" y="46" width="17" height="31" rx="4" fill="#ffe5bb" opacity="0.95"/>
<rect x="61" y="129" width="34" height="28" rx="5" fill="#ffbf60" opacity="0.95"/>
<rect x="82" y="82" width="24" height="47" rx="0" fill="#c27d24" opacity="0.95"/>
<rect x="85" y="44" width="28" height="9" rx="2" fill="#ffe5bb" opacity="0.95"/>
<rect x="52" y="88" width="34" height="18" rx="5" fill="#ffbf60" opacity="0.95"/>
  <rect x="102" y="86" width="36" height="12" rx="6" fill="#111"/>
  <circle cx="112" cy="92" r="3" fill="#8ef5ff"/><circle cx="128" cy="92" r="3" fill="#8ef5ff"/>
  <rect x="92" y="150" width="18" height="36" fill="#c27d24"/><rect x="120" y="150" width="18" height="36" fill="#c27d24"/>
</svg>