<svg xmlns="http://www.w3.org/2000/svg" viewBox="0 0 200 200">
  <defs><linearGradient id="g" x1="0" x2="1"><stop offset="0%" stop-color="#6f7889"/><stop offset="100%" stop-color="#9da8bb"/></linearGradient></defs>
  <rect width="200" height="200" fill="#101a2d"/>
  <ellipse cx="100" cy="182" rx="56" ry="10" fill="#000" opacity="0.35"/>
  <rect x="52" y="58" width="96" height="92" rx="16" fill="url(#g)" stroke="#d7dde7" stroke-width="3"/>
  <rect x="85" y="23" width="25" height="46" rx="3" fill="#9da8bb" opacity="0.95"/>
<rect x="145" y="78" width="27" height="25" rx="5" fill="#6f7889" opacity="0.95"/>
<rect x="68" y="41" width="27" height="45" rx="3" fill="#d7dde7" opacity="0.95"/>
<rect x="135" y="47" width="16" height="41" rx="4" fill="#9da8bb" opacity="0.95"/>
<rect x="90" y="103" width="35" height="31" rx="2" fill="#6f7889" opacity="0.95"/>
<rect x="175" y="115" width="45" height="27" rx="5" fill="#d7dde7" opacity="0.95"/>
<rect x="54" y="31" width="39" height="36" rx="3" fill="#9da8bb" opacity="0.95"/>
<rect x="106" y="85" width="11" height="41" rx="2" fill="#6f7889" opacity="0.95"/>
<rect x="59" y="108" width="29" height="35" rx="3" fill="#d7dde7" opacity="0.95"/>
<rect x="129" y="86" width="22" height="21" rx="0" fill="#9da8bb" opacity="0.95"/>
  <rect x="102" y="86" width="36" height="12" rx="6" fill="#111"/>
  <circle cx="112" cy="92" r="3" fill="#8ef5ff"/><circle cx="128" cy="92" r="3" fill="#8ef5ff"/>
  <rect x="92" y="150" width="18" height="36" fill="#6f7889"/><rect x="120" y="150" width="18" height="36" fill="#6f7889"/>
</svg>