<svg xmlns="http://www.w3.org/2000/svg" viewBox="0 0 200 200">
  <defs><linearGradient id="g" x1="0" x2="1"><stop offset="0%" stop-color="#6f43af"/><stop offset="100%" stop-color="#c084ff"/></linearGradient></defs>
  <rect width="200" height="200" fill="#101a2d"/>
  <ellipse cx="100" cy="182" rx="56" ry="10" fill="#000" opacity="0.35"/>
  <rect x="52" y="58" width="96" height="92" rx="16" fill="url(#g)" stroke="#f0dcff" stroke-width="3"/>
  <rect x="164" y="72" width="16" height="21" rx="2" fill="#c084ff" opacity="0.95"/>
<rect x="59" y="92" width="36" height="37" rx="2" fill="#6f43af" opacity="0.95"/>
<rect x="155" y="64" width="23" height="30" rx="1" fill="#f0dcff" opacity="0.95"/>
<rect x="20" y="141" width="17" height="31" rx="0" fill="#c084ff" opacity="0.95"/>
<rect x="102" y="149" width="31" height="27" rx="4" fill="#6f43af" opacity="0.95"/>
<rect x="139" y="55" width="24" height="20" rx="1" fill="#f0dcff" opacity="0.95"/>
<rect x="122" y="129" width="12" height="22" rx="0" fill="#c084ff" opacity="0.95"/>
<rect x="112" y="65" width="15" height="16" rx="2" fill="#6f43af" opacity="0.95"/>
<rect x="176" y="31" width="13" height="46" rx="3" fill="#f0dcff" opacity="0.95"/>
<rect x="131" y="102" width="20" height="10" rx="0" fill="#c084ff" opacity="0.95"/>
  <rect x="102" y="86" width="36" height="12" rx="6" fill="#111"/>
  <circle cx="112" cy="92" r="3" fill="#8ef5ff"/><circle cx="128" cy="92" r="3" fill="#8ef5ff"/>
  <rect x="92" y="150" width="18" height="36" fill="#6f43af"/><rect x="120" y="150" width="18" height="36" fill="#6f43af"/>
</svg>