<svg xmlns="http://www.w3.org/2000/svg" viewBox="0 0 200 200">
  <defs><linearGradient id="g" x1="0" x2="1"><stop offset="0%" stop-color="#c27d24"/><stop offset="100%" stop-color="#ffbf60"/></linearGradient></defs>
  <rect width="200" height="200" fill="#101a2d"/>
  <ellipse cx="100" cy="182" rx="56" ry="10" fill="#000" opacity="0.35"/>
  <rect x="52" y="58" width="96" height="92" rx="16" fill="url(#g)" stroke="#ffe5bb" stroke-width="3"/>
  <rect x="116" y="101" width="15" height="17" rx="5" fill="#ffbf60" opacity="0.95"/>
<rect x="83" y="135" width="39" height="13" rx="1" fill="#c27d24" opacity="0.95"/>
<rect x="85" y="20" width="17" height="11" rx="2" fill="#ffe5bb" opacity="0.95"/>
<rect x="169" y="50" width="29" height="44" rx="5" fill="#ffbf60" opacity="0.95"/>
<rect x="25" y="123" width="40" height="43" rx="4" fill="#c27d24" opacity="0.95"/>
<rect x="69" y="108" width="15" height="25" rx="4" fill="#ffe5bb" opacity="0.95"/>
<rect x="42" y="113" width="22" height="46" rx="2" fill="#ffbf60" opacity="0.95"/>
<rect x="93" y="152" width="21" height="10" rx="5" fill="#c27d24" opacity="0.95"/>
<rect x="85" y="86" width="35" height="46" rx="0" fill="#ffe5bb" opacity="0.95"/>
<rect x="45" y="64" width="39" height="33" rx="2" fill="#ffbf60" opacity="0.95"/>
  <rect x="102" y="86" width="36" height="12" rx="6" fill="#111"/>
  <circle cx="112" cy="92" r="3" fill="#8ef5ff"/><circle cx="128" cy="92" r="3" fill="#8ef5ff"/>
  <rect x="92" y="150" width="18" height="36" fill="#c27d24"/><rect x="120" y="150" width="18" height="36" fill="#c27d24"/>
</svg>