<svg xmlns="http://www.w3.org/2000/svg" viewBox="0 0 200 200">
  <defs><linearGradient id="g" x1="0" x2="1"><stop offset="0%" stop-color="#3478b8"/><stop offset="100%" stop-color="#65bcff"/></linearGradient></defs>
  <rect width="200" height="200" fill="#101a2d"/>
  <ellipse cx="100" cy="182" rx="56" ry="10" fill="#000" opacity="0.35"/>
  <rect x="52" y="58" width="96" height="92" rx="16" fill="url(#g)" stroke="#d3edff" stroke-width="3"/>
  <rect x="122" y="59" width="10" height="19" rx="5" fill="#65bcff" opacity="0.95"/>
<rect x="36" y="153" width="15" height="19" rx="4" fill="#3478b8" opacity="0.95"/>
<rect x="119" y="78" width="21" height="16" rx="1" fill="#d3edff" opacity="0.95"/>
<rect x="159" y="130" width="37" height="38" rx="2" fill="#65bcff" opacity="0.95"/>
<rect x="32" y="59" width="15" height="46" rx="0" fill="#3478b8" opacity="0.95"/>
<rect x="40" y="105" width="45" height="17" rx="3" fill="#d3edff" opacity="0.95"/>
<rect x="178" y="25" width="44" height="32" rx="2" fill="#65bcff" opacity="0.95"/>
<rect x="83" y="53" width="45" height="42" rx="1" fill="#3478b8" opacity="0.95"/>
<rect x="135" y="52" width="14" height="12" rx="4" fill="#d3edff" opacity="0.95"/>
<rect x="43" y="119" width="16" height="28" rx="0" fill="#65bcff" opacity="0.95"/>
  <rect x="102" y="86" width="36" height="12" rx="6" fill="#111"/>
  <circle cx="112" cy="92" r="3" fill="#8ef5ff"/><circle cx="128" cy="92" r="3" fill="#8ef5ff"/>
  <rect x="92" y="150" width="18" height="36" fill="#3478b8"/><rect x="120" y="150" width="18" height="36" fill="#3478b8"/>
</svg>