<svg xmlns="http://www.w3.org/2000/svg" viewBox="0 0 200 200">
  <defs><linearGradient id="g" x1="0" x2="1"><stop offset="0%" stop-color="#6f7889"/><stop offset="100%" stop-color="#9da8bb"/></linearGradient></defs>
  <rect width="200" height="200" fill="#101a2d"/>
  <ellipse cx="100" cy="182" rx="56" ry="10" fill="#000" opacity="0.35"/>
  <rect x="52" y="58" width="96" height="92" rx="16" fill="url(#g)" stroke="#d7dde7" stroke-width="3"/>
  <rect x="171" y="24" width="11" height="12" rx="4" fill="#9da8bb" opacity="0.95"/>
<rect x="150" y="121" width="28" height="38" rx="5" fill="#6f7889" opacity="0.95"/>
<rect x="162" y="72" width="32" height="30" rx="2" fill="#d7dde7" opacity="0.95"/>
<rect x="139" y="51" width="41" height="10" rx="0" fill="#9da8bb" opacity="0.95"/>
<rect x="84" y="113" width="45" height="41" rx="1" fill="#6f7889" opacity="0.95"/>
<rect x="95" y="56" width="18" height="24" rx="2" fill="#d7dde7" opacity="0.95"/>
<rect x="135" y="116" width="32" height="45" rx="2" fill="#9da8bb" opacity="0.95"/>
<rect x="89" y="42" width="35" height="13" rx="5" fill="#6f7889" opacity="0.95"/>
<rect x="158" y="52" width="12" height="39" rx="3" fill="#d7dde7" opacity="0.95"/>
<rect x="40" y="123" width="40" height="11" rx="5" fill="#9da8bb" opacity="0.95"/>
  <rect x="82" y="86" width="36" height="12" rx="6" fill="#111"/>
  <circle cx="92" cy="92" r="3" fill="#8ef5ff"/><circle cx="108" cy="92" r="3" fill="#8ef5ff"/>
  <rect x="70" y="150" width="20" height="36" fill="#6f7889"/><rect x="110" y="150" width="20" height="36" fill="#6f7889"/>
</svg>